<?xml version="1.0" encoding="UTF-8"?>
<!DOCTYPE svg PUBLIC "-//W3C//DTD SVG 1.1//EN" "http://www.w3.org/Graphics/SVG/1.1/DTD/svg11.dtd">
<svg xmlns="http://www.w3.org/2000/svg" version="1.1" width="666px" height="666px" style="shape-rendering:geometricPrecision; text-rendering:geometricPrecision; image-rendering:optimizeQuality; fill-rule:evenodd; clip-rule:evenodd" xmlns:xlink="http://www.w3.org/1999/xlink">
<g><path style="opacity:0.992" fill="#87d1ed" d="M 308.5,394.5 C 307.733,395.172 307.066,396.005 306.5,397C 307.998,397.585 308.998,397.085 309.5,395.5C 321.902,384.186 328.235,370.019 328.5,353C 328.299,342.729 325.466,333.229 320,324.5C 303.877,305.598 291.877,284.264 284,260.5C 283.465,254.115 283.465,247.781 284,241.5C 252.05,215.892 224.717,186.225 202,152.5C 189.799,132.597 181.966,111.097 178.5,88C 179.044,86.0532 180.377,85.2199 182.5,85.5C 268.792,100.88 339.292,142.547 394,210.5C 413.913,236.641 431.58,264.308 447,293.5C 456.611,285.609 467.111,279.109 478.5,274C 500.359,266.331 518.859,271.164 534,288.5C 543.197,300.886 550.864,314.219 557,328.5C 564.468,317.732 572.301,307.232 580.5,297C 586.973,293.597 593.307,293.931 599.5,298C 611.658,306.913 623.992,315.579 636.5,324C 643.007,328.203 645.174,334.036 643,341.5C 627.996,364.837 611.83,387.337 594.5,409C 589.016,411.148 583.683,410.815 578.5,408C 564,397.5 549.5,387 535,376.5C 532.246,371.987 531.913,367.32 534,362.5C 539.5,354.167 545,345.833 550.5,337.5C 545.018,332.882 538.685,331.382 531.5,333C 523.998,334.834 518.165,339.001 514,345.5C 504.726,365.047 495.726,384.714 487,404.5C 465.836,444.189 432.669,466.023 387.5,470C 375.191,471.346 362.858,471.679 350.5,471C 333.119,469.588 315.786,467.755 298.5,465.5C 276.016,466.824 258.516,476.824 246,495.5C 229.078,525.27 218.744,557.27 215,591.5C 213.585,601.152 212.418,610.819 211.5,620.5C 209.61,620.703 208.11,620.037 207,618.5C 196.988,596.608 192.155,573.608 192.5,549.5C 176.324,546.735 161.324,549.735 147.5,558.5C 147.167,558.167 146.833,557.833 146.5,557.5C 174.463,496.423 217.463,448.923 275.5,415C 247.434,410.452 220.1,403.119 193.5,393C 161.732,380.129 135.066,360.463 113.5,334C 99.2942,329.598 85.2942,324.598 71.5,319C 51.4997,309.999 36.333,295.833 26,276.5C 25.2115,274.835 24.8782,273.169 25,271.5C 122.308,258.02 215.808,271.52 305.5,312C 314.77,320.439 320.27,330.939 322,343.5C 325.44,362.749 320.94,379.749 308.5,394.5 Z M 586.5,301.5 C 587.787,302.871 588.453,304.705 588.5,307C 587.3,321.202 585.8,335.368 584,349.5C 569.98,357.228 555.48,363.895 540.5,369.5C 540.547,366.072 541.713,363.072 544,360.5C 558.188,340.766 572.355,321.1 586.5,301.5 Z M 597.5,305.5 C 604.747,311.469 612.414,316.969 620.5,322C 612.084,326.641 603.417,330.808 594.5,334.5C 594.167,334.167 593.833,333.833 593.5,333.5C 594.826,325.575 595.493,317.575 595.5,309.5C 596.167,308.167 596.833,306.833 597.5,305.5 Z M 626.5,327.5 C 633.244,329.39 636.077,333.724 635,340.5C 620.667,360.833 606.333,381.167 592,401.5C 583.686,404.865 579.186,402.031 578.5,393C 579.308,382.103 580.475,371.269 582,360.5C 584.69,357.992 587.69,355.992 591,354.5C 591.893,350.557 593.059,346.724 594.5,343C 605.38,338.059 616.047,332.892 626.5,327.5 Z M 571.5,363.5 C 572.649,363.791 573.316,364.624 573.5,366C 572.691,374.92 571.524,383.753 570,392.5C 562.079,387.123 554.246,381.623 546.5,376C 554.981,371.91 563.314,367.743 571.5,363.5 Z"/></g>
<g><path style="opacity:0.895" fill="#7abcd5" d="M 502.5,194.5 C 505.425,194.46 508.091,195.293 510.5,197C 514.967,202.468 519.8,207.635 525,212.5C 527.174,215.546 527.841,218.88 527,222.5C 518.803,231.031 510.303,239.198 501.5,247C 498.081,249.846 494.414,250.18 490.5,248C 485.333,242.833 480.167,237.667 475,232.5C 470.682,228.265 470.516,223.932 474.5,219.5C 483.307,210.348 492.64,202.014 502.5,194.5 Z M 502.5,201.5 C 501.65,206.232 500.484,210.899 499,215.5C 497.437,218.728 494.937,220.895 491.5,222C 486.824,223.008 482.157,223.675 477.5,224C 485.488,216.024 493.821,208.524 502.5,201.5 Z M 508.5,203.5 C 517.037,209.849 516.037,212.849 505.5,212.5C 506.351,209.422 507.351,206.422 508.5,203.5 Z M 515.5,215.5 C 520.946,214.761 522.779,216.761 521,221.5C 512.833,229 504.667,236.5 496.5,244C 495.5,244.667 494.5,244.667 493.5,244C 492.409,241.936 492.242,239.769 493,237.5C 494.269,233.859 495.436,230.192 496.5,226.5C 499.784,224.883 502.451,222.55 504.5,219.5C 508.276,218.133 511.943,216.8 515.5,215.5 Z M 489.5,227.5 C 489.736,230.829 488.903,233.829 487,236.5C 484.833,234.333 482.667,232.167 480.5,230C 483.247,228.396 486.247,227.562 489.5,227.5 Z"/></g>
<g><path style="opacity:0.895" fill="#7ec3dd" d="M 590.5,221.5 C 593.518,221.335 596.518,221.502 599.5,222C 600.931,222.465 602.097,223.299 603,224.5C 605.807,235.534 607.973,246.701 609.5,258C 609.31,263.19 606.644,266.19 601.5,267C 586.687,269.663 571.854,272.163 557,274.5C 553.601,274.265 551.268,272.598 550,269.5C 546.698,257.361 545.032,245.028 545,232.5C 547.194,229.819 550.027,228.319 553.5,228C 566.009,226.028 578.342,223.861 590.5,221.5 Z M 587.5,227.5 C 590.187,227.336 592.854,227.503 595.5,228C 589.676,233.733 583.343,238.733 576.5,243C 574.287,243.626 572.12,243.459 570,242.5C 564.249,239.805 558.415,237.305 552.5,235C 564.101,231.628 575.767,229.128 587.5,227.5 Z M 597.5,233.5 C 598.586,233.62 599.253,234.287 599.5,235.5C 600.384,239.473 601.051,243.473 601.5,247.5C 596.836,246.667 592.503,245 588.5,242.5C 591.727,239.721 594.727,236.721 597.5,233.5 Z M 550.5,242.5 C 550.735,241.903 551.235,241.57 552,241.5C 556.243,242.803 560.41,244.303 564.5,246C 560.922,249.606 556.922,252.439 552.5,254.5C 552.283,250.295 551.617,246.295 550.5,242.5 Z M 582.5,246.5 C 588.808,248.984 595.141,251.484 601.5,254C 604.08,256.544 604.08,259.044 601.5,261.5C 587.737,264.157 573.904,266.49 560,268.5C 555.034,268.371 553.534,266.037 555.5,261.5C 560.882,256.783 566.549,252.45 572.5,248.5C 576.411,250.185 579.745,249.518 582.5,246.5 Z"/></g>
<g><path style="opacity:0.086" fill="#34515c" d="M 597.5,305.5 C 596.833,306.833 596.167,308.167 595.5,309.5C 595.215,307.712 595.548,306.045 596.5,304.5C 597.107,304.624 597.44,304.957 597.5,305.5 Z"/></g>
<g><path style="opacity:0.153" fill="#436878" d="M 308.5,394.5 C 308.5,395.167 308.833,395.5 309.5,395.5C 308.998,397.085 307.998,397.585 306.5,397C 307.066,396.005 307.733,395.172 308.5,394.5 Z"/></g>
</svg>
